<?xml version="1.0" encoding="UTF-8"?>
<!DOCTYPE svg PUBLIC "-//W3C//DTD SVG 1.1//EN" "http://www.w3.org/Graphics/SVG/1.1/DTD/svg11.dtd">
<!-- Creator: CorelDRAW 2021 (64-Bit) -->
<svg xmlns="http://www.w3.org/2000/svg" xml:space="preserve" width="210mm" height="157.5mm" version="1.1" style="shape-rendering:geometricPrecision; text-rendering:geometricPrecision; image-rendering:optimizeQuality; fill-rule:evenodd; clip-rule:evenodd"
viewBox="0 0 8237.18 6177.89"
 xmlns:xlink="http://www.w3.org/1999/xlink"
 xmlns:xodm="http://www.corel.com/coreldraw/odm/2003">
 <defs>
  <style type="text/css">
   <![CDATA[
    .fil3 {fill:none}
    .fil2 {fill:#012A87}
    .fil1 {fill:#DC171D}
    .fil0 {fill:white}
   ]]>
  </style>
   <clipPath id="id0">
    <path d="M-0 0l8237.18 0 0 6177.89 -8237.18 0 0 -6177.89z"/>
   </clipPath>
 </defs>
 <g id="Layer_x0020_1">
  <metadata id="CorelCorpID_0Corel-Layer"/>
  <g>
  </g>
  <g style="clip-path:url(#id0)">
   <g>
    <g id="_2548851855456">
     <polygon class="fil0" points="-514.83,-0 8752.01,-0 8752.01,6177.89 -514.83,6177.89 "/>
     <polygon class="fil1" points="3088.95,-0 5148.24,-0 5148.24,6177.89 3088.95,6177.89 "/>
     <polygon class="fil2" points="-514.83,2059.3 8752.01,2059.3 8752.01,4118.59 -514.83,4118.59 "/>
     <polygon id="a" class="fil0" points="3762.23,4032.78 3602.26,3904.08 3443.13,4027.63 3506.29,3837.15 3346.36,3708.44 3538.52,3708.45 3605.86,3517.96 3667.03,3708.45 3861.18,3708.45 3707.23,3837.15 "/>
     <g>
      <polygon class="fil0" points="4791.84,4032.78 4631.87,3904.08 4472.74,4027.63 4535.89,3837.15 4375.97,3708.44 4568.12,3708.45 4635.47,3517.96 4696.63,3708.45 4890.79,3708.45 4736.84,3837.15 "/>
     </g>
     <g>
      <polygon class="fil0" points="3762.23,2659.83 3602.26,2531.12 3443.13,2654.68 3506.29,2464.19 3346.36,2335.48 3538.52,2335.48 3605.86,2145 3667.03,2335.48 3861.18,2335.48 3707.23,2464.19 "/>
     </g>
     <g>
      <polygon class="fil0" points="4750.69,2659.83 4590.73,2531.12 4431.6,2654.68 4494.75,2464.19 4334.83,2335.48 4526.98,2335.48 4594.32,2145 4655.48,2335.48 4849.65,2335.48 4695.69,2464.19 "/>
     </g>
     <g>
      <polygon class="fil0" points="2903.51,3346.35 2743.54,3217.64 2584.41,3341.2 2647.56,3150.71 2487.63,3022.01 2679.79,3022.01 2747.13,2831.53 2808.29,3022.01 3002.45,3022.01 2848.5,3150.72 "/>
     </g>
     <g>
      <polygon class="fil0" points="5649.94,3346.38 5489.98,3217.67 5330.85,3341.23 5394,3150.74 5234.07,3022.03 5426.23,3022.04 5493.58,2831.55 5554.74,3022.04 5748.9,3022.04 5594.95,3150.74 "/>
     </g>
    </g>
   </g>
  </g>
  <polygon class="fil3" points="-0,0 8237.18,0 8237.18,6177.89 -0,6177.89 "/>
 </g>
</svg>
