<?xml version="1.0" encoding="UTF-8"?>
<!DOCTYPE svg PUBLIC "-//W3C//DTD SVG 1.0//EN" "http://www.w3.org/TR/2001/REC-SVG-20010904/DTD/svg10.dtd">
<!-- Creator: CorelDRAW 2020 (64-Bit) -->
<svg xmlns="http://www.w3.org/2000/svg" xml:space="preserve" width="5717px" height="5717px" version="1.0" style="shape-rendering:geometricPrecision; text-rendering:geometricPrecision; image-rendering:optimizeQuality; fill-rule:evenodd; clip-rule:evenodd"
viewBox="0 0 2425 2425"
 xmlns:xlink="http://www.w3.org/1999/xlink"
 xmlns:xodm="http://www.corel.com/coreldraw/odm/2003">
 <defs>
  <style type="text/css">
   <![CDATA[
    .fil0 {fill:none}
    .fil1 {fill:#00A884}
   ]]>
  </style>
 </defs>
 <g id="Layer_x0020_1">
  <metadata id="CorelCorpID_0Corel-Layer"/>
  <rect class="fil0" width="2425" height="2425"/>
  <path class="fil1" d="M151 1267c0,-553 449,-1002 1002,-1002 553,0 1002,449 1002,1002 0,553 -449,1002 -1002,1002 -553,0 -1002,-449 -1002,-1002zm2154 0c0,-636 -516,-1152 -1152,-1152 -636,0 -1152,516 -1152,1152 0,636 516,1152 1152,1152 636,0 1152,-516 1152,-1152z"/>
  <path class="fil1" d="M940 977c-7,-34 -89,-219 -109,-260 -61,-92 -193,-6 -246,48 -48,62 -75,137 -75,212 0,397 774,1021 1107,854 54,-36 259,-215 144,-273l-75 -34c-28,-12 -187,-89 -198,-89 -89,0 -132,150 -185,150 -143,1 -517,-379 -458,-437 32,-41 114,-115 96,-171z"/>
  <path class="fil1" d="M1784 5l0 0c123,0 223,100 223,223l0 195 195 0c123,0 223,100 223,223l0 0c0,123 -100,223 -223,223l-195 0 0 195c0,123 -100,223 -223,223l0 0c-123,0 -223,-100 -223,-223l0 -195 -195 0c-123,0 -223,-100 -223,-223l0 0c0,-123 100,-223 223,-223l195 0 0 -195c0,-123 100,-223 223,-223z"/>
 </g>
</svg>
